<svg width="32" height="16" viewBox="0 0 32 16" fill="none" xmlns="http://www.w3.org/2000/svg">
<path opacity="0.4" d="M31.3753 0.625689C31.7758 1.02711 32.0007 1.57097 32.0007 2.13798C32.0007 2.70499 31.7758 3.24885 31.3753 3.65027L20.1687 14.8569C19.9027 15.1222 19.5424 15.2712 19.1667 15.2712C18.791 15.2712 18.4306 15.1222 18.1646 14.8569L12.0532 8.74879C11.8546 8.54975 11.6971 8.31354 11.5898 8.05365C11.4825 7.79377 11.4274 7.51529 11.4277 7.23412C11.428 6.95294 11.4837 6.67459 11.5916 6.41494C11.6995 6.15529 11.8575 5.91943 12.0565 5.72084C12.4585 5.31975 13.0034 5.09478 13.5712 5.09541C13.8524 5.09572 14.1307 5.15142 14.3904 5.2593C14.65 5.36719 14.8859 5.52517 15.0845 5.7242L19.17 9.80975L28.3507 0.625689C28.752 0.225031 29.2959 0 29.863 0C30.4301 0 30.974 0.225031 31.3753 0.625689Z" fill="url(#paint0_linear_5449_5410)"/>
<path d="M19.9476 0.625689C20.348 1.02711 20.5729 1.57097 20.5729 2.13798C20.5729 2.70499 20.348 3.24885 19.9476 3.65027L8.74095 14.8569C8.47497 15.1222 8.11462 15.2712 7.73893 15.2712C7.36324 15.2712 7.00289 15.1222 6.73691 14.8569L0.625427 8.74879C0.42683 8.54975 0.269382 8.31354 0.162071 8.05365C0.0547605 7.79377 -0.000311436 7.51529 1.3247e-06 7.23412C0.000314085 6.95294 0.0560071 6.67459 0.163896 6.41494C0.271784 6.15529 0.429757 5.91943 0.628796 5.72084C1.03077 5.31975 1.57562 5.09478 2.14347 5.09541C2.42465 5.09572 2.703 5.15142 2.96265 5.2593C3.2223 5.36719 3.45815 5.52517 3.65675 5.7242L7.7423 9.80975L16.923 0.625689C17.3243 0.225031 17.8682 0 18.4353 0C19.0024 0 19.5463 0.225031 19.9476 0.625689Z" fill="url(#paint1_linear_5449_5410)"/>
<defs>
<linearGradient id="paint0_linear_5449_5410" x1="15.301" y1="13.8769" x2="31.0291" y2="5.13793" gradientUnits="userSpaceOnUse">
<stop stop-color="#1B1B1B"/>
<stop offset="1" stop-color="#414141"/>
</linearGradient>
<linearGradient id="paint1_linear_5449_5410" x1="3.87324" y1="13.8769" x2="19.6013" y2="5.13793" gradientUnits="userSpaceOnUse">
<stop stop-color="#1B1B1B"/>
<stop offset="1" stop-color="#414141"/>
</linearGradient>
</defs>
</svg>
