<svg width="125" height="89" viewBox="0 0 125 89" fill="none" xmlns="http://www.w3.org/2000/svg">
<path d="M124.285 78.0292V74.5094H118.039V73.0104H123.844V69.5127H118.039V68.0137H124.322V64.494H114.196V78.0292H124.285ZM105.063 78.2276C107.392 78.2276 109.457 77.3825 111.272 75.7219V69.6964H105.121V72.9223H107.848V73.7306C107.319 74.1861 106.216 74.6123 105.121 74.6123C104.027 74.6123 103.255 74.2817 102.653 73.6203C102.05 72.9443 101.734 72.1581 101.734 71.2249C101.734 70.2916 102.043 69.5201 102.667 68.8808C103.306 68.2415 104.115 67.9109 105.121 67.9109C106.187 67.9109 107.157 68.2783 108.031 68.991L110.412 66.1179C108.965 64.8908 107.223 64.2662 105.158 64.2662C103.093 64.2662 101.315 64.9275 99.919 66.2429C98.5302 67.5435 97.8322 69.2262 97.8322 71.2763C97.8322 73.3264 98.5082 74.9577 99.8456 76.273C101.198 77.5736 102.939 78.2349 105.063 78.2349V78.2276ZM87.0158 68.1534H88.9924C89.8889 68.1534 90.5649 68.462 91.0279 69.0719C91.5055 69.6744 91.7406 70.3872 91.7406 71.2543C91.7406 72.1213 91.5055 72.8488 91.0279 73.4513C90.5723 74.0539 89.8889 74.3698 88.9924 74.3698H87.0158V68.1607V68.1534ZM88.8087 78.0218C90.9691 78.0218 92.6518 77.4193 93.8642 76.2069C95.0913 74.9944 95.6939 73.3484 95.6939 71.2616C95.6939 69.1747 95.0914 67.5067 93.8789 66.3016C92.6885 65.0965 91.0058 64.4866 88.8455 64.4866H83.2021V78.0218H88.8087ZM75.9643 78.0218H79.8073V64.4866H75.9643V78.0218ZM67.8079 67.9476C68.5941 67.9476 69.0497 68.4767 69.0497 69.2115C69.0497 69.9463 68.6088 70.49 67.7124 70.49H65.7504V67.9476H67.8006H67.8079ZM73.4145 78.0218L70.6516 73.128C72.2461 72.3197 72.981 70.784 72.981 69.0792C72.981 67.7272 72.5401 66.625 71.6803 65.7652C70.8206 64.9055 69.5347 64.4866 67.852 64.4866H61.9515V78.0218H65.7578V73.7893H66.9335L69.0791 78.0218H73.4218H73.4145ZM51.6642 74.796V72.5769H54.1184C54.9046 72.5769 55.3309 73.0692 55.3309 73.6791C55.3309 74.289 54.9267 74.796 53.9935 74.796H51.6642ZM53.7731 67.6684C54.4123 67.6684 54.8018 68.1093 54.8018 68.6383C54.8018 69.1674 54.4344 69.5936 53.6114 69.5936H51.6715V67.6684H53.7804H53.7731ZM56.6682 70.5782C57.7704 70.1961 58.5346 69.0425 58.5346 67.8153C58.5346 66.9189 58.1893 66.1326 57.4692 65.4713C56.7564 64.81 55.7644 64.4793 54.5005 64.4793H47.924V78.0145H54.8312C56.1318 78.0145 57.1899 77.6471 58.0203 76.8976C58.8433 76.1481 59.2474 75.1781 59.2474 74.0024C59.2474 72.3197 58.3509 70.9603 56.6682 70.5782ZM33.125 78.0145V72.1507L36.2038 76.3832H37.6881L40.7669 72.1507V78.0145H44.5365V64.4793H41.5679L36.9533 71.0338L32.3166 64.4793H29.3848V78.0145H33.1176H33.125ZM19.4942 72.5181L20.6626 68.7853L21.8015 72.5181H19.4942ZM27.2024 78.0145L22.529 64.4793H18.8109L13.9979 78.0145H17.8997L18.5757 75.7954H22.6613L23.3006 78.0145H27.2024ZM7.3258 78.2129C8.58967 78.2129 9.74336 77.9557 10.8088 77.4266C11.8743 76.8976 12.712 76.2362 13.3145 75.4132L10.8088 72.981C9.87563 74.0612 8.81014 74.5903 7.58301 74.5903C6.6645 74.5903 5.90027 74.2817 5.25364 73.635C4.62905 72.9957 4.32046 72.2095 4.32046 71.2543C4.32046 70.299 4.62905 69.498 5.25364 68.8514C5.89292 68.2121 6.66447 67.8815 7.59768 67.8815C8.71459 67.8815 9.78009 68.3958 10.75 69.4172L13.1308 66.838C11.8669 65.2435 9.75803 64.2368 7.34051 64.2368C5.37857 64.2368 3.7326 64.8981 2.38056 66.2355C1.0432 67.5508 0.367188 69.2409 0.367188 71.291C0.367188 73.3411 1.02852 74.9871 2.34382 76.2877C3.68118 77.5662 5.32712 78.2129 7.3258 78.2129Z" fill="#322777"/>
<path d="M99.3241 84.6349C100.11 84.5761 100.177 85.8841 99.2727 85.84H98.4277V84.6349H99.3241ZM101.573 88.9188L100.368 86.854C101.051 86.5307 101.382 85.8988 101.382 85.1934C101.382 84.657 101.205 84.2234 100.86 83.878C100.515 83.5253 100.008 83.349 99.3389 83.349H97.0168V88.9188H98.4277V87.0745H98.9788L99.9561 88.9188H101.565H101.573ZM95.7015 88.9188V87.6182H93.1003V86.7732H95.5105V85.4799H93.1003V84.6569H95.7089V83.3563H91.6822V88.9262H95.7015V88.9188ZM87.6921 88.9188H89.1176V84.7084H90.6534V83.349H86.149V84.7084H87.6921V88.9188ZM83.7315 86.369L81.1523 83.349H80.1457V88.9188H81.5271V85.9355L84.0622 88.9188H85.1276V83.349H83.7389V86.369H83.7315ZM78.823 88.9188V87.6182H76.2218V86.7732H78.632V85.4799H76.2218V84.6569H78.8303V83.3563H74.8036V88.9262H78.823V88.9188ZM71.3206 88.9997C71.8423 88.9997 72.3126 88.8968 72.7461 88.6763C73.1723 88.4559 73.525 88.1767 73.7822 87.8387L72.849 86.9422C72.4522 87.4198 71.9672 87.655 71.4161 87.655C70.9973 87.655 70.6372 87.508 70.3433 87.2288C70.0567 86.9349 69.9171 86.5748 69.9171 86.1412C69.9171 85.7077 70.0567 85.3256 70.3433 85.0317C70.6372 84.7378 70.99 84.5908 71.4235 84.5908C71.9305 84.5908 72.3934 84.826 72.827 85.2815L73.7234 84.341C73.2091 83.6723 72.3273 83.2388 71.3353 83.2388C70.527 83.2388 69.851 83.5106 69.2925 84.0618C68.7414 84.6055 68.4622 85.2962 68.4622 86.1412C68.4622 86.9863 68.7341 87.6623 69.2852 88.1987C69.8363 88.7278 70.5123 88.9923 71.328 88.9923L71.3206 88.9997ZM63.4361 88.9997C64.4061 88.9997 65.2584 88.6469 65.9932 87.9342V85.524H63.4508V86.7291H64.7147V87.2141C64.4428 87.4639 63.9505 87.6623 63.4655 87.6623C63.0026 87.6623 62.6278 87.5154 62.3486 87.2067C62.0693 86.9055 61.9297 86.5454 61.9297 86.1192C61.9297 85.693 62.0694 85.3256 62.3559 85.0317C62.6425 84.7378 63.0099 84.5908 63.4655 84.5908C63.9578 84.5908 64.3913 84.7672 64.7734 85.1052L65.6699 84.0544C65.1556 83.5694 64.3546 83.2388 63.4802 83.2388C62.6058 83.2388 61.915 83.5106 61.3419 84.0544C60.7761 84.5982 60.4895 85.2889 60.4895 86.1266C60.4895 86.9642 60.7614 87.6403 61.3125 88.184C61.8636 88.7204 62.569 88.9923 63.4361 88.9923V88.9997ZM57.9177 86.369L55.3385 83.349H54.3318V88.9188H55.7133V85.9355L58.2484 88.9188H59.3138V83.349H57.9251V86.369H57.9177ZM51.444 88.9188H52.8622V83.349H51.444V88.9188ZM48.5856 86.369L46.0064 83.349H44.9998V88.9188H46.3812V85.9355L48.9163 88.9188H49.9818V83.349H48.593V86.369H48.5856ZM41.649 84.6349C42.4353 84.5761 42.5014 85.8841 41.5976 85.84H40.7526V84.6349H41.649ZM43.8975 88.9188L42.6924 86.854C43.3758 86.5307 43.7065 85.8988 43.7065 85.1934C43.7065 84.657 43.5302 84.2234 43.1848 83.878C42.8394 83.5253 42.3324 83.349 41.6637 83.349H39.3417V88.9188H40.7526V87.0745H41.3037L42.281 88.9188H43.8902H43.8975ZM35.2048 86.6777L35.7559 85.0243L36.2849 86.6777H35.2048ZM38.3938 88.9188L36.4098 83.349H35.1019L33.0665 88.9188H34.5214L34.8521 87.9048H36.6229L36.9462 88.9188H38.3938ZM32.2802 88.9188V87.6182H29.679V86.7732H32.0892V85.4799H29.679V84.6569H32.2876V83.3563H28.2608V88.9262H32.2802V88.9188ZM27.2395 88.9188V87.5741H24.5354V83.349H23.1172V88.9188H27.2395Z" fill="#322777"/>
<mask id="mask0_2901_5937" style="mask-type:luminance" maskUnits="userSpaceOnUse" x="39" y="0" width="47" height="54">
<path d="M60.0402 25.6007C57.6447 25.6007 54.8524 23.5727 54.8524 21.0302L60.0475 21.5813V25.6007H60.0402ZM59.298 28.055H63.0382L64.5078 29.4952C64.5078 30.2447 64.5078 31.4498 64.5078 32.53C63.1411 33.2721 59.2172 33.9849 57.7696 33.4191C56.1237 32.7357 54.8084 27.8346 59.298 28.055ZM75.9929 18.0983L85.5748 8.52378C80.6736 3.27725 73.7003 0 65.9554 0C51.127 0 39.1055 12.0215 39.1055 26.8499C39.1055 41.6783 51.127 53.6998 65.9554 53.6998C73.7003 53.6998 80.6736 50.4226 85.5748 45.176L75.9929 35.5941C73.1786 38.8273 70.0189 40.2234 65.7129 40.1279C64.1992 40.0985 62.7149 39.7311 61.3628 39.0404C59.9667 38.3276 59.9153 36.2334 61.5686 36.0203C63.1043 35.8219 64.6915 35.2561 65.8966 34.5507C66.8004 35.0798 68.9755 35.7558 70.2246 36.0277C71.5987 35.4839 72.9655 34.5434 73.9428 33.4338C72.4952 33.9923 68.6522 33.2721 67.2928 32.53V29.4952L70.1806 26.6589H63.1484V20.6922C63.1484 19.6414 62.3622 18.7744 61.3188 18.6641L55.9105 18.091C56.3073 17.6354 56.7409 17.2019 57.2038 16.8051C58.5485 15.6367 60.0769 14.7623 61.7082 14.2112C63.3468 13.6601 65.0883 13.4323 66.8666 13.5572C68.6374 13.6821 70.3349 14.1451 71.878 14.9166C73.4211 15.6882 74.8172 16.761 75.9855 18.0983L70.2687 23.8151V20.6408C70.2687 19.612 71.0256 18.7523 72.0469 18.6127L75.9855 18.0983H75.9929Z" fill="white"/>
</mask>
<g mask="url(#mask0_2901_5937)">
<path d="M85.5748 -0.00683594H39.1055V53.693H85.5748V-0.00683594Z" fill="url(#paint0_linear_2901_5937)"/>
</g>
<defs>
<linearGradient id="paint0_linear_2901_5937" x1="57.4243" y1="32.479" x2="82.1285" y2="4.16685" gradientUnits="userSpaceOnUse">
<stop stop-color="#322777"/>
<stop offset="1" stop-color="#169CD7"/>
</linearGradient>
</defs>
</svg>
