<svg width="28" height="24" viewBox="0 0 28 24" fill="none" xmlns="http://www.w3.org/2000/svg">
<path d="M16.9556 0.6662C15.0609 -0.222066 12.9376 -0.222067 11.043 0.666199L2.12149 4.84879C0.686819 5.52139 0.312771 7.41803 0.999349 8.72888L0.999349 15.3333C0.999349 15.8856 1.44706 16.3333 1.99935 16.3333C2.55163 16.3333 2.99935 15.8856 2.99935 15.3333V10.2294L11.0431 14.0005C12.9378 14.8887 15.0611 14.8887 16.9557 14.0005L25.8772 9.81788C27.8178 8.90807 27.8178 5.75866 25.8772 4.84885L16.9556 0.6662Z" fill="white"/>
<path d="M4.66602 13.2196V18.1672C4.66602 19.5113 5.33735 20.7696 6.51313 21.4208C8.47095 22.505 11.6047 24 13.9993 24C16.394 24 19.5277 22.505 21.4856 21.4208C22.6613 20.7696 23.3327 19.5113 23.3327 18.1672V13.2197L17.8047 15.8113C15.3721 16.9518 12.6267 16.9518 10.1941 15.8113L4.66602 13.2196Z" fill="white"/>
</svg>
