<svg width="60" height="60" viewBox="0 0 60 60" fill="none" xmlns="http://www.w3.org/2000/svg"><circle cx="30" cy="30" r="30" fill="url(#paint0_linear_274_545)"/><path d="M43.3333 21.4666V37.3199C43.3333 38.6132 42.28 39.7999 40.9867 39.9599L40.5733 40.0132C38.3867 40.3066 35.3067 41.2132 32.8267 42.2532C31.96 42.6132 31 41.9599 31 41.0132V22.4666C31 21.9732 31.28 21.5199 31.72 21.2799C34.16 19.9599 37.8533 18.7866 40.36 18.5732H40.44C42.04 18.5732 43.3333 19.8666 43.3333 21.4666Z" fill="white"/><path d="M28.281 21.2799C25.841 19.9599 22.1476 18.7866 19.641 18.5732H19.5476C17.9476 18.5732 16.6543 19.8666 16.6543 21.4666V37.3199C16.6543 38.6132 17.7076 39.7999 19.001 39.9599L19.4143 40.0132C21.601 40.3066 24.681 41.2132 27.161 42.2532C28.0276 42.6132 28.9876 41.9599 28.9876 41.0132V22.4666C28.9876 21.9599 28.721 21.5199 28.281 21.2799ZM20.6676 25.3199H23.6676C24.2143 25.3199 24.6676 25.7732 24.6676 26.3199C24.6676 26.8799 24.2143 27.3199 23.6676 27.3199H20.6676C20.121 27.3199 19.6676 26.8799 19.6676 26.3199C19.6676 25.7732 20.121 25.3199 20.6676 25.3199ZM24.6676 31.3199H20.6676C20.121 31.3199 19.6676 30.8799 19.6676 30.3199C19.6676 29.7732 20.121 29.3199 20.6676 29.3199H24.6676C25.2143 29.3199 25.6676 29.7732 25.6676 30.3199C25.6676 30.8799 25.2143 31.3199 24.6676 31.3199Z" fill="white"/><defs><linearGradient id="paint0_linear_274_545" x1="11.2961" y1="54.5216" x2="54.8652" y2="31.5368" gradientUnits="userSpaceOnUse"><stop stop-color="#F27D00"/><stop offset="1" stop-color="#F8A700"/></linearGradient></defs></svg>