<svg width="60" height="60" viewBox="0 0 60 60" fill="none" xmlns="http://www.w3.org/2000/svg"><circle cx="30" cy="30" r="30" fill="url(#paint0_linear_274_573)"/><path d="M23 20.8265C22.4533 20.8265 22 20.3732 22 19.8265V17.4932C22 16.9465 22.4533 16.4932 23 16.4932C23.5467 16.4932 24 16.9465 24 17.4932V19.8265C24 20.3865 23.5467 20.8265 23 20.8265Z" fill="white"/><path d="M28.334 20.8265C27.7873 20.8265 27.334 20.3732 27.334 19.8265V17.4932C27.334 16.9465 27.7873 16.4932 28.334 16.4932C28.8807 16.4932 29.334 16.9465 29.334 17.4932V19.8265C29.334 20.3865 28.8807 20.8265 28.334 20.8265Z" fill="white"/><path d="M33.666 20.8265C33.1193 20.8265 32.666 20.3732 32.666 19.8265V17.4932C32.666 16.9465 33.1193 16.4932 33.666 16.4932C34.2127 16.4932 34.666 16.9465 34.666 17.4932V19.8265C34.666 20.3865 34.2127 20.8265 33.666 20.8265Z" fill="white"/><path d="M44.6673 31.6667C44.6673 28.1733 41.9606 25.3467 38.5473 25.0533C37.5606 23.44 35.8006 22.3467 33.774 22.3467H23.9473C20.854 22.3467 18.334 24.8667 18.334 27.96V28.6667H39.3873V27.96C39.3873 27.7067 39.3473 27.4533 39.3073 27.2133C41.2406 27.7867 42.6673 29.5467 42.6673 31.6667C42.6673 33.76 41.2807 35.5067 39.3873 36.0933V30H18.334V37.72C18.334 40.8133 20.854 43.3333 23.9473 43.3333H33.774C36.7073 43.3333 39.094 41.0667 39.334 38.1867C42.374 37.5733 44.6673 34.88 44.6673 31.6667Z" fill="white"/><defs><linearGradient id="paint0_linear_274_573" x1="11.2961" y1="54.5216" x2="62.6003" y2="33.3617" gradientUnits="userSpaceOnUse"><stop stop-color="#1B1B1B"/><stop offset="1" stop-color="#414141"/></linearGradient></defs></svg>