<svg width="60" height="60" viewBox="0 0 60 60" fill="none" xmlns="http://www.w3.org/2000/svg"><circle cx="30" cy="30" r="30" fill="url(#paint0_linear_274_552)"/><path d="M29 38.3331H26C24.5333 38.3331 23.3333 39.5331 23.3333 40.9998V41.3331H22C21.4533 41.3331 21 41.7865 21 42.3331C21 42.8798 21.4533 43.3331 22 43.3331H38C38.5467 43.3331 39 42.8798 39 42.3331C39 41.7865 38.5467 41.3331 38 41.3331H36.6667V40.9998C36.6667 39.5331 35.4667 38.3331 34 38.3331H31V35.2798C30.6667 35.3198 30.3333 35.3331 30 35.3331C29.6667 35.3331 29.3333 35.3198 29 35.2798V38.3331Z" fill="white"/><path d="M38.6391 29.5198C39.5191 29.1865 40.2924 28.6398 40.9057 28.0265C42.1457 26.6532 42.9591 25.0132 42.9591 23.0932C42.9591 21.1732 41.4524 19.6665 39.5324 19.6665H38.7857C37.9191 17.8932 36.1057 16.6665 33.9991 16.6665H25.9991C23.8924 16.6665 22.0791 17.8932 21.2124 19.6665H20.4657C18.5457 19.6665 17.0391 21.1732 17.0391 23.0932C17.0391 25.0132 17.8524 26.6532 19.0924 28.0265C19.7057 28.6398 20.4791 29.1865 21.3591 29.5198C22.7457 32.9332 26.0791 35.3332 29.9991 35.3332C33.9191 35.3332 37.2524 32.9332 38.6391 29.5198ZM33.7857 25.2665L32.9591 26.2798C32.8257 26.4265 32.7324 26.7198 32.7457 26.9198L32.8257 28.2265C32.8791 29.0265 32.3057 29.4398 31.5591 29.1465L30.3457 28.6665C30.1591 28.5998 29.8391 28.5998 29.6524 28.6665L28.4391 29.1465C27.6924 29.4398 27.1191 29.0265 27.1724 28.2265L27.2524 26.9198C27.2657 26.7198 27.1724 26.4265 27.0391 26.2798L26.2124 25.2665C25.6924 24.6532 25.9191 23.9732 26.6924 23.7732L27.9591 23.4532C28.1591 23.3998 28.3991 23.2132 28.5057 23.0398L29.2124 21.9465C29.6524 21.2665 30.3457 21.2665 30.7857 21.9465L31.4924 23.0398C31.5991 23.2132 31.8391 23.3998 32.0391 23.4532L33.3057 23.7732C34.0791 23.9732 34.3057 24.6532 33.7857 25.2665Z" fill="white"/><defs><linearGradient id="paint0_linear_274_552" x1="11.2961" y1="54.5216" x2="54.8661" y2="31.5351" gradientUnits="userSpaceOnUse"><stop stop-color="#E60C20"/><stop offset="1" stop-color="#EE5B0A"/></linearGradient></defs></svg>