<svg width="29" height="14" viewBox="0 0 29 14" fill="none" xmlns="http://www.w3.org/2000/svg">
<path opacity="0.4" d="M28.4335 0.573605C28.7964 0.94161 29.0002 1.4402 29.0002 1.96001C29.0002 2.47982 28.7964 2.97841 28.4335 3.34641L18.2772 13.6202C18.0361 13.8634 17.7095 14 17.3691 14C17.0286 14 16.702 13.8634 16.461 13.6202L10.9223 8.02051C10.7423 7.83804 10.5996 7.6215 10.5024 7.38324C10.4051 7.14499 10.3552 6.88969 10.3555 6.63192C10.3558 6.37416 10.4062 6.11897 10.504 5.88094C10.6018 5.6429 10.7449 5.42668 10.9253 5.24461C11.2896 4.87692 11.7834 4.67067 12.298 4.67125C12.5529 4.67154 12.8051 4.72259 13.0404 4.8215C13.2758 4.92041 13.4895 5.06523 13.6695 5.2477L17.3721 8.99316L25.6924 0.573605C26.0561 0.206299 26.549 0 27.0629 0C27.5769 0 28.0698 0.206299 28.4335 0.573605Z" fill="url(#paint0_linear_590_3736)"/>
<path d="M18.078 0.573605C18.4409 0.94161 18.6447 1.4402 18.6447 1.96001C18.6447 2.47982 18.4409 2.97841 18.078 3.34641L7.92171 13.6202C7.68066 13.8634 7.35408 14 7.0136 14C6.67313 14 6.34655 13.8634 6.1055 13.6202L0.566809 8.02051C0.386826 7.83804 0.244134 7.6215 0.146881 7.38324C0.0496282 7.14499 -0.000282247 6.88969 1.20054e-06 6.63192C0.000284648 6.37416 0.0507579 6.11897 0.148535 5.88094C0.246312 5.6429 0.389478 5.42668 0.569863 5.24461C0.934166 4.87692 1.42795 4.67067 1.94258 4.67125C2.1974 4.67154 2.44967 4.72259 2.68498 4.8215C2.92029 4.92041 3.13404 5.06523 3.31402 5.2477L7.01666 8.99316L15.3369 0.573605C15.7006 0.206299 16.1935 0 16.7075 0C17.2214 0 17.7143 0.206299 18.078 0.573605Z" fill="url(#paint1_linear_590_3736)"/>
<defs>
<linearGradient id="paint0_linear_590_3736" x1="13.8657" y1="12.7217" x2="25.4531" y2="4.58029" gradientUnits="userSpaceOnUse">
<stop stop-color="#029720"/>
<stop offset="1" stop-color="#60B212"/>
</linearGradient>
<linearGradient id="paint1_linear_590_3736" x1="3.51023" y1="12.7217" x2="15.0976" y2="4.58029" gradientUnits="userSpaceOnUse">
<stop stop-color="#029720"/>
<stop offset="1" stop-color="#60B212"/>
</linearGradient>
</defs>
</svg>
