<svg width="32" height="32" viewBox="0 0 32 32" fill="none" xmlns="http://www.w3.org/2000/svg">
<path fill-rule="evenodd" clip-rule="evenodd" d="M2.66602 16.0003V10.667C2.66602 6.89576 2.66602 5.01014 3.83759 3.83857C5.00916 2.66699 6.89478 2.66699 10.666 2.66699H21.3327C25.1039 2.66699 26.9895 2.66699 28.1611 3.83856C29.3327 5.01014 29.3327 6.89576 29.3327 10.667V16.0003C29.3327 19.7716 29.3327 21.6572 28.1611 22.8288C27.2993 23.6906 26.051 23.9184 23.95 23.9787C23.9451 22.9976 23.6043 22.0179 22.9275 21.2237C22.8892 21.1788 22.8661 21.123 22.8614 21.0641C22.6942 18.9688 21.0303 17.305 18.935 17.1378C18.8762 17.1331 18.8204 17.11 18.7755 17.0717C17.1756 15.7083 14.8226 15.7083 13.2227 17.0717C13.1778 17.11 13.122 17.1331 13.0632 17.1378C10.9679 17.305 9.30401 18.9688 9.13681 21.0641C9.13211 21.123 9.10898 21.1788 9.07071 21.2237C8.39395 22.0179 8.05312 22.9976 8.04823 23.9787C5.94749 23.9184 4.69936 23.6905 3.83759 22.8288C2.66602 21.6572 2.66602 19.7716 2.66602 16.0003ZM10.9993 8.00033C10.9993 7.44804 11.4471 7.00033 11.9993 7.00033H19.9993C20.5516 7.00033 20.9993 7.44804 20.9993 8.00033C20.9993 8.55261 20.5516 9.00033 19.9993 9.00033H11.9993C11.4471 9.00033 10.9993 8.55261 10.9993 8.00033ZM9.33268 11.667C8.7804 11.667 8.33268 12.1147 8.33268 12.667C8.33268 13.2193 8.7804 13.667 9.33268 13.667H22.666C23.2183 13.667 23.666 13.2193 23.666 12.667C23.666 12.1147 23.2183 11.667 22.666 11.667H9.33268Z" fill="white"/>
<path fill-rule="evenodd" clip-rule="evenodd" d="M17.4782 18.5939C16.6259 17.8676 15.3723 17.8676 14.52 18.5939C14.1547 18.9052 13.7006 19.0933 13.2223 19.1314C12.106 19.2205 11.2196 20.107 11.1305 21.2232C11.0923 21.7016 10.9042 22.1557 10.5929 22.521C9.86659 23.3733 9.86659 24.6269 10.5929 25.4792C10.9042 25.8444 11.0923 26.2986 11.1305 26.7769C11.2196 27.8932 12.106 28.7796 13.2223 28.8687C13.7006 28.9069 14.1547 29.095 14.52 29.4063C15.3723 30.1326 16.6259 30.1326 17.4782 29.4063C17.8435 29.095 18.2976 28.9069 18.7759 28.8687C19.8922 28.7796 20.7787 27.8932 20.8677 26.7769C20.9059 26.2986 21.094 25.8444 21.4053 25.4792C22.1316 24.6269 22.1316 23.3733 21.4053 22.521C21.094 22.1557 20.9059 21.7016 20.8677 21.2232C20.7787 20.107 19.8922 19.2205 18.7759 19.1314C18.2976 19.0933 17.8435 18.9052 17.4782 18.5939ZM18.6817 23.3981C19.0854 23.0212 19.1072 22.3884 18.7304 21.9847C18.3536 21.5809 17.7208 21.5591 17.317 21.9359L15.1422 23.9658L14.6817 23.5359C14.2779 23.1591 13.6451 23.1809 13.2683 23.5847C12.8915 23.9884 12.9133 24.6212 13.317 24.9981L14.4599 26.0647C14.8441 26.4233 15.4403 26.4233 15.8245 26.0647L18.6817 23.3981Z" fill="white"/>
</svg>
