<svg width="146" height="45" viewBox="0 0 146 45" fill="none" xmlns="http://www.w3.org/2000/svg">
<path d="M145.97 23.8312V20.9707H140.882V19.749H145.612V16.9034H140.882V15.6817H146V12.8162H137.747V23.8362H145.97V23.8312ZM130.315 23.9951C132.208 23.9951 133.897 23.3098 135.373 21.954V17.0474H130.36V19.6695H132.581V20.3251C132.148 20.6975 131.254 21.0402 130.36 21.0402C129.466 21.0402 128.84 20.772 128.348 20.2357C127.856 19.6845 127.602 19.0438 127.602 18.284C127.602 17.5242 127.856 16.8984 128.363 16.377C128.884 15.8555 129.54 15.5874 130.36 15.5874C131.224 15.5874 132.014 15.8853 132.73 16.4664L134.667 14.1273C133.49 13.1291 132.074 12.6226 130.385 12.6226C128.695 12.6226 127.25 13.1589 126.117 14.2316C124.984 15.2894 124.418 16.665 124.418 18.3336C124.418 20.0023 124.969 21.3332 126.057 22.4059C127.16 23.4637 128.576 24 130.31 24L130.315 23.9951ZM115.614 15.7959H117.224C117.954 15.7959 118.506 16.0492 118.878 16.5409C119.266 17.0325 119.46 17.6136 119.46 18.3138C119.46 19.014 119.266 19.61 118.878 20.1016C118.506 20.5933 117.954 20.8465 117.224 20.8465H115.614V15.791V15.7959ZM117.075 23.8312C118.834 23.8312 120.21 23.3395 121.194 22.3562C122.192 21.3729 122.684 20.0321 122.684 18.3287C122.684 16.6253 122.192 15.2695 121.208 14.2862C120.24 13.3029 118.868 12.8113 117.105 12.8113H112.509V23.8312H117.075ZM106.612 23.8312H109.747V12.8113H106.612V23.8312ZM99.9694 15.6321C100.61 15.6321 100.983 16.0641 100.983 16.6601C100.983 17.256 100.625 17.703 99.8949 17.703H98.3001V15.6321H99.9694ZM104.535 23.8312L102.285 19.8483C103.581 19.1928 104.177 17.9413 104.177 16.5508C104.177 15.4483 103.82 14.5544 103.119 13.8492C102.419 13.149 101.375 12.8063 99.9992 12.8063H95.195V23.8262H98.3001V20.3797H99.254L100.998 23.8262H104.535V23.8312ZM86.8236 21.2091V19.4063H88.8208C89.4617 19.4063 89.8045 19.8086 89.8045 20.3002C89.8045 20.7919 89.4766 21.2091 88.7165 21.2091H86.8236ZM88.5376 15.4086C89.0593 15.4086 89.3723 15.7661 89.3723 16.1982C89.3723 16.6303 89.0742 16.9729 88.4035 16.9729H86.8236V15.4086H88.5376ZM90.8925 17.7774C91.7868 17.4646 92.4128 16.526 92.4128 15.5278C92.4128 14.7977 92.1296 14.1571 91.5484 13.6208C90.9671 13.0844 90.1622 12.8162 89.1338 12.8162H83.7781V23.8362H89.4021C90.4603 23.8362 91.3248 23.5382 92.0005 22.9274C92.6712 22.3165 92.9991 21.5269 92.9991 20.5734C92.9991 19.2027 92.2687 18.1002 90.8975 17.7874L90.8925 17.7774ZM71.7154 23.8312V19.0587L74.2193 22.5052H75.4266L77.9306 19.0587V23.8312H81.0059V12.8113H78.5913L74.8304 18.1499L71.0546 12.8113H68.6699V23.8312H71.7154ZM60.6115 19.3567L61.5654 16.3124L62.4894 19.3567H60.6115ZM66.8913 23.8312L63.0856 12.8113H60.055L56.1302 23.8312H59.3098L59.8613 22.0285H63.19L63.7116 23.8312H66.8913ZM50.6999 23.9951C51.7284 23.9951 52.6673 23.7865 53.5368 23.3545C54.4012 22.9224 55.0869 22.386 55.5787 21.7156L53.5368 19.7341C52.7766 20.6131 51.9122 21.0452 50.9136 21.0452C50.1683 21.0452 49.5424 20.7919 49.0207 20.2705C48.5139 19.749 48.2606 19.1084 48.2606 18.3336C48.2606 17.5589 48.5139 16.9034 49.0207 16.382C49.5424 15.8605 50.1683 15.5923 50.9285 15.5923C51.8377 15.5923 52.7021 16.0095 53.4921 16.8438L55.4297 14.7431C54.4012 13.447 52.6823 12.6275 50.7149 12.6275C49.1201 12.6275 47.7737 13.1639 46.6707 14.2515C45.5827 15.3242 45.0312 16.6948 45.0312 18.3684C45.0312 20.042 45.5678 21.3829 46.6409 22.4407C47.729 23.4836 49.0704 24.005 50.6999 24.005V23.9951Z" fill="#322777"/>
<path d="M108.086 29.2097C108.722 29.1601 108.782 30.2278 108.042 30.1931H107.356V29.2097H108.086ZM109.915 32.696L108.931 31.0125C109.487 30.7493 109.761 30.2328 109.761 29.6617C109.761 29.2246 109.622 28.872 109.338 28.589C109.055 28.3009 108.643 28.1619 108.096 28.1619H106.203V32.696H107.351V31.1913H107.798L108.598 32.696H109.91H109.915ZM105.13 32.696V31.6332H103.014V30.9479H104.976V29.8901H103.014V29.2197H105.135V28.1569H101.856V32.691H105.13V32.696ZM98.607 32.696H99.7696V29.2644H101.022V28.1619H97.3501V29.2644H98.607V32.696ZM95.3827 30.6201L93.2812 28.1619H92.4564V32.696H93.5792V30.2675L95.641 32.696H96.5055V28.1619H95.3777V30.6201H95.3827ZM91.3833 32.696V31.6332H89.2669V30.9479H91.2293V29.8901H89.2669V29.2197H91.3932V28.1569H88.1142V32.691H91.3883L91.3833 32.696ZM85.2724 32.7655C85.6947 32.7655 86.0823 32.6811 86.435 32.5023C86.7828 32.3235 87.066 32.0951 87.2746 31.822L86.5145 31.0919C86.1916 31.4793 85.7941 31.673 85.347 31.673C85.0042 31.673 84.716 31.5538 84.4775 31.3253C84.244 31.087 84.1297 30.789 84.1297 30.4414C84.1297 30.0937 84.244 29.7809 84.4775 29.5375C84.716 29.2991 85.0041 29.1799 85.3569 29.1799C85.7692 29.1799 86.1468 29.3687 86.4996 29.7461L87.2299 28.9813C86.8126 28.435 86.0922 28.0874 85.2824 28.0874C84.6266 28.0874 84.0751 28.3059 83.618 28.7578C83.1709 29.1998 82.9424 29.766 82.9424 30.4513C82.9424 31.1366 83.161 31.6928 83.6131 32.1249C84.0602 32.557 84.6117 32.7705 85.2774 32.7705L85.2724 32.7655ZM78.8535 32.7655C79.6435 32.7655 80.339 32.4775 80.9352 31.9014V29.9398H78.8684V30.9231H79.9018V31.3154C79.6783 31.519 79.2808 31.6779 78.8833 31.6779C78.5107 31.6779 78.2027 31.5538 77.9742 31.3104C77.7456 31.0671 77.6314 30.7691 77.6314 30.4265C77.6314 30.0838 77.7456 29.7809 77.9791 29.5425C78.2127 29.3041 78.5157 29.1849 78.8833 29.1849C79.2808 29.1849 79.6385 29.324 79.9515 29.6021L80.6818 28.7479C80.2645 28.3556 79.6087 28.0874 78.8933 28.0874C78.1779 28.0874 77.6165 28.3059 77.1495 28.7479C76.6874 29.1899 76.4539 29.756 76.4539 30.4364C76.4539 31.1168 76.6725 31.668 77.1246 32.11C77.5718 32.547 78.1481 32.7655 78.8535 32.7655ZM74.3573 30.6251L72.2558 28.1669H71.4311V32.701H72.5539V30.2725L74.6157 32.701H75.4802V28.1669H74.3524V30.6251H74.3573ZM69.0811 32.701H70.2338V28.1669H69.0811V32.701ZM66.751 30.6251L64.6495 28.1669H63.8248V32.701H64.9476V30.2725L67.0094 32.701H67.8739V28.1669H66.7461V30.6251H66.751ZM61.1022 29.2147C61.7382 29.1651 61.7978 30.2328 61.0575 30.198H60.3719V29.2147H61.1022ZM62.9305 32.701L61.9468 31.0174C62.5032 30.7542 62.7765 30.2377 62.7765 29.6666C62.7765 29.2296 62.6374 28.877 62.3542 28.5939C62.071 28.3059 61.6587 28.1669 61.1122 28.1669H59.2193V32.701H60.3669V31.1962H60.8141L61.6139 32.701H62.9255H62.9305ZM55.8509 30.8784L56.298 29.5326L56.7302 30.8784H55.8509ZM58.4492 32.701L56.8346 28.1669H55.7664L54.107 32.701H55.2894L55.5577 31.8716H56.9985L57.2618 32.701H58.4393H58.4492ZM53.4661 32.701V31.6382H51.3497V30.9529H53.3121V29.8951H51.3497V29.2246H53.4761V28.1619H50.1971V32.696H53.4711L53.4661 32.701ZM49.3624 32.701V31.6084H47.1565V28.1669H46.0039V32.701H49.3624Z" fill="#322777"/>
<path d="M21.6762 33.5704C20.4441 33.5456 19.2368 33.2427 18.1339 32.6865C16.9912 32.1054 16.9564 30.402 18.2978 30.2282C19.5498 30.0643 20.8415 29.6074 21.8252 29.0314C22.5605 29.4634 24.3342 30.0147 25.3477 30.2332C26.4655 29.7912 27.5784 29.0264 28.3783 28.1176C27.2008 28.5745 24.0709 27.9885 22.9629 27.3876V24.9144L25.3129 22.6051H19.5846V17.7532C19.5846 16.899 18.9487 16.1889 18.0991 16.0945L13.6923 15.6277C14.0202 15.2602 14.368 14.9076 14.7456 14.5798C15.8386 13.6263 17.0856 12.9162 18.4121 12.4692C19.7485 12.0222 21.1694 11.8385 22.6152 11.9378C24.056 12.0371 25.4421 12.4146 26.699 13.0403C27.956 13.671 29.0937 14.5351 30.0377 15.6227L26.8481 16.0448C26.0134 16.1541 25.3974 16.8543 25.3974 17.6936V20.281L30.0575 15.6227L37.8526 7.83576C33.8582 3.56486 28.1746 0.893066 21.87 0.893066C9.7923 0.893066 0 10.6814 0 22.7541C0 34.8269 9.7923 44.6152 21.87 44.6152C28.1796 44.6152 33.8582 41.9434 37.8526 37.6725L30.0476 29.8756C27.7523 32.5077 25.1837 33.6449 21.6762 33.5704ZM12.8229 18.0164L17.0508 18.4683V21.741C15.1033 21.741 12.8229 20.0873 12.8229 18.0164ZM15.2026 28.1077C13.8563 27.5514 12.7881 23.5587 16.4447 23.7424H19.4952L20.6875 24.9144V27.3826C19.5747 27.9885 16.3801 28.5695 15.2026 28.1077Z" fill="url(#paint0_linear_464_180)"/>
<defs>
<linearGradient id="paint0_linear_464_180" x1="18.8394" y1="26.2205" x2="34.0449" y2="8.78812" gradientUnits="userSpaceOnUse">
<stop stop-color="#322777"/>
<stop offset="1" stop-color="#169CD7"/>
</linearGradient>
</defs>
</svg>
