<svg width="60" height="60" viewBox="0 0 60 60" fill="none" xmlns="http://www.w3.org/2000/svg"><circle cx="30" cy="30" r="30" fill="url(#paint0_linear_274_559)"/><path d="M33.1324 16.6665H26.8657C25.479 16.6665 24.3457 17.7865 24.3457 19.1732V20.4265C24.3457 21.8132 25.4657 22.9332 26.8524 22.9332H33.1324C34.519 22.9332 35.639 21.8132 35.639 20.4265V19.1732C35.6524 17.7865 34.519 16.6665 33.1324 16.6665Z" fill="white"/><path d="M36.9867 20.4266C36.9867 22.5466 35.2534 24.28 33.1334 24.28H26.8667C24.7467 24.28 23.0134 22.5466 23.0134 20.4266C23.0134 19.68 22.2134 19.2133 21.5467 19.56C19.6667 20.56 18.3867 22.5466 18.3867 24.8266V37.3733C18.3867 40.6533 21.0667 43.3333 24.3467 43.3333H35.6534C38.9334 43.3333 41.6134 40.6533 41.6134 37.3733V24.8266C41.6134 22.5466 40.3334 20.56 38.4534 19.56C37.7867 19.2133 36.9867 19.68 36.9867 20.4266ZM34.4534 30.9733L29.1201 36.3066C28.9201 36.5066 28.6667 36.6 28.4134 36.6C28.1601 36.6 27.9067 36.5066 27.7067 36.3066L25.7067 34.3066C25.3201 33.92 25.3201 33.28 25.7067 32.8933C26.0934 32.5066 26.7334 32.5066 27.1201 32.8933L28.4134 34.1866L33.0401 29.56C33.4267 29.1733 34.0667 29.1733 34.4534 29.56C34.8401 29.9466 34.8401 30.5866 34.4534 30.9733Z" fill="white"/><defs><linearGradient id="paint0_linear_274_559" x1="11.2961" y1="54.5216" x2="54.8661" y2="31.5351" gradientUnits="userSpaceOnUse"><stop stop-color="#029720"/><stop offset="1" stop-color="#60B212"/></linearGradient></defs></svg>