<svg width="199" height="61" viewBox="0 0 199 61" fill="none" xmlns="http://www.w3.org/2000/svg">
<path d="M198.96 31.9612V28.0866H192.06V26.4329H198.472V22.5786H192.06V20.9249H199.001V17.0504H187.807V31.9612H198.96ZM177.724 32.1839C180.297 32.1839 182.579 31.2591 184.584 29.4231V22.7879H177.785V26.3384H180.798V27.2227C180.209 27.7289 178.997 28.1879 177.785 28.1879C176.573 28.1879 175.719 27.8234 175.049 27.1011C174.379 26.3519 174.04 25.4879 174.04 24.4551C174.04 23.4224 174.385 22.5786 175.069 21.8699C175.78 21.1611 176.667 20.8034 177.785 20.8034C178.956 20.8034 180.033 21.2084 181.001 21.9914L183.636 18.8256C182.037 17.4756 180.114 16.7871 177.825 16.7871C175.537 16.7871 173.573 17.5161 172.036 18.9674C170.498 20.3984 169.726 22.2546 169.726 24.5159C169.726 26.7772 170.478 28.5726 171.954 30.0239C173.451 31.4549 175.374 32.1839 177.724 32.1839ZM157.781 21.0869H159.968C160.957 21.0869 161.709 21.4311 162.217 22.0926C162.745 22.7609 163.009 23.5439 163.009 24.4956C163.009 25.4474 162.745 26.2507 162.217 26.9189C161.709 27.5872 160.964 27.9247 159.968 27.9247H157.781V21.0869ZM159.765 31.9612C162.156 31.9612 164.018 31.2929 165.352 29.9632C166.706 28.6334 167.377 26.8177 167.377 24.5159C167.377 22.2141 166.706 20.3781 165.372 19.0484C164.059 17.7186 162.196 17.0504 159.806 17.0504H153.569V31.9612H159.765ZM145.572 31.9612H149.824V17.0504H145.572V31.9612ZM136.559 20.8641C137.432 20.8641 137.933 21.4514 137.933 22.2546C137.933 23.0579 137.446 23.6654 136.457 23.6654H134.29V20.8641H136.559ZM142.755 31.9612L139.701 26.5746C141.461 25.6904 142.274 23.9894 142.274 22.1196C142.274 20.6279 141.786 19.4129 140.838 18.4679C139.89 17.5229 138.468 17.0571 136.606 17.0571H130.092V31.9679H134.304V27.3104H135.597L137.967 31.9679H142.762L142.755 31.9612ZM118.722 28.4106V25.9671H121.431C122.304 25.9671 122.765 26.5139 122.765 27.1754C122.765 27.8369 122.318 28.4039 121.288 28.4039H118.715L118.722 28.4106ZM121.051 20.5604C121.762 20.5604 122.182 21.0464 122.182 21.6269C122.182 22.2074 121.776 22.6731 120.869 22.6731H118.722V20.5536H121.051V20.5604ZM124.248 23.7666C125.46 23.3414 126.313 22.0724 126.313 20.7224C126.313 19.7369 125.927 18.8661 125.142 18.1371C124.349 17.4081 123.259 17.0504 121.864 17.0504H114.598V31.9612H122.23C123.665 31.9612 124.844 31.5562 125.751 30.7326C126.658 29.9024 127.105 28.8359 127.105 27.5467C127.105 25.6904 126.117 24.1986 124.254 23.7734L124.248 23.7666ZM98.2308 31.9544V25.5014L101.63 30.1589H103.269L106.668 25.5014V31.9544H110.84V17.0436H107.562L102.463 24.2662L97.3437 17.0436H94.1068V31.9544H98.2376H98.2308ZM83.1638 25.8996L84.4572 21.7821L85.7099 25.8996H83.157H83.1638ZM91.6826 31.9544L86.5226 17.0436H82.4121L77.0896 31.9544H81.4031L82.1548 29.5109H86.6715L87.3826 31.9544H91.6961H91.6826ZM69.7152 32.1772C71.1102 32.1772 72.39 31.8937 73.5615 31.3132C74.733 30.7259 75.6675 30.0036 76.3311 29.0924L73.5615 26.4059C72.5322 27.5939 71.3539 28.1812 69.9996 28.1812C68.9906 28.1812 68.1374 27.8369 67.4263 27.1349C66.7356 26.4262 66.3971 25.5621 66.3971 24.5091C66.3971 23.4561 66.7424 22.5719 67.4263 21.8631C68.1374 21.1544 68.9838 20.7966 70.0199 20.7966C71.2523 20.7966 72.4306 21.3636 73.5006 22.4909L76.1348 19.6491C74.7398 17.8941 72.4103 16.7871 69.7423 16.7871C67.5753 16.7871 65.7537 17.5161 64.2572 18.9876C62.781 20.4389 62.0293 22.2951 62.0293 24.5564C62.0293 26.8177 62.7606 28.6334 64.2166 30.0644C65.6928 31.4752 67.5144 32.1839 69.722 32.1839L69.7152 32.1772Z" fill="white"/>
<path d="M147.557 39.2383C148.423 39.1708 148.498 40.6153 147.496 40.5681H146.561V39.2383H147.55H147.557ZM150.035 43.9498L148.701 41.6751C149.459 41.3173 149.825 40.6221 149.825 39.8458C149.825 39.2585 149.636 38.7726 149.25 38.3946C148.864 38.0031 148.308 37.814 147.57 37.814H145.004V43.9498H146.561V41.9181H147.171L148.254 43.9498H150.035ZM143.548 43.9498V42.5121H140.677V41.5806H143.345V40.1563H140.677V39.2518H143.561V37.814H139.112V43.9498H143.548ZM134.704 43.9498H136.275V39.3126H137.975V37.8208H132.997V39.3126H134.704V43.9498ZM130.329 41.1418L127.479 37.814H126.361V43.9498H127.885V40.6626L130.682 43.9498H131.853V37.814H130.323V41.1418H130.329ZM124.905 43.9498V42.5121H122.034V41.5806H124.702V40.1563H122.034V39.2518H124.912V37.814H120.463V43.9498H124.899H124.905ZM116.617 44.0376C117.192 44.0376 117.714 43.9228 118.188 43.6798C118.662 43.4368 119.048 43.1331 119.325 42.7618L118.296 41.7763C117.856 42.2961 117.321 42.5661 116.712 42.5661C116.244 42.5661 115.852 42.4108 115.526 42.0936C115.208 41.7696 115.052 41.3713 115.052 40.8988C115.052 40.4263 115.208 40.0011 115.526 39.6771C115.852 39.353 116.244 39.1978 116.718 39.1978C117.274 39.1978 117.795 39.4543 118.269 39.9606L119.258 38.9211C118.689 38.1853 117.714 37.7061 116.617 37.7061C115.723 37.7061 114.978 38.0031 114.362 38.6106C113.752 39.2113 113.448 39.9741 113.448 40.8988C113.448 41.8236 113.746 42.5728 114.355 43.1668C114.964 43.7473 115.709 44.0376 116.61 44.0376H116.617ZM107.908 44.0376C108.985 44.0376 109.926 43.6461 110.732 42.8698V40.2171H107.929V41.5468H109.33V42.0801C109.032 42.3568 108.491 42.5728 107.949 42.5728C107.441 42.5728 107.021 42.4041 106.716 42.0733C106.412 41.7426 106.249 41.3443 106.249 40.8786C106.249 40.4128 106.405 40.0078 106.723 39.6838C107.042 39.3598 107.448 39.2046 107.949 39.2046C108.491 39.2046 108.971 39.3936 109.398 39.7716L110.387 38.6173C109.818 38.084 108.931 37.7196 107.963 37.7196C106.994 37.7196 106.229 38.0165 105.599 38.6173C104.976 39.218 104.658 39.9808 104.658 40.8988C104.658 41.8168 104.956 42.5661 105.565 43.1668C106.175 43.7541 106.954 44.0578 107.915 44.0578L107.908 44.0376ZM101.807 41.1418L98.9561 37.814H97.8388V43.9498H99.3624V40.6626L102.159 43.9498H103.331V37.814H101.8V41.1418H101.807ZM94.6493 43.9498H96.2136V37.814H94.6493V43.9498ZM91.4869 41.1418L88.6428 37.814H87.5255V43.9498H89.0491V40.6626L91.8458 43.9498H93.0174V37.814H91.4869V41.1418ZM83.8214 39.2316C84.6882 39.1641 84.7626 40.6086 83.7604 40.5613H82.8259V39.2316H83.8146H83.8214ZM86.2998 43.9431L84.9658 41.6683C85.7242 41.3106 86.0899 40.6153 86.0899 39.839C86.0899 39.2518 85.9003 38.7658 85.5143 38.3878C85.1283 37.9963 84.573 37.8073 83.8349 37.8073H81.2684V43.9431H82.8259V41.9113H83.4354L84.5189 43.9431H86.2998ZM76.6975 41.4793L77.307 39.6636L77.8894 41.4793H76.6975ZM80.2188 43.9431L78.0316 37.8073H76.5824L74.3342 43.9431H75.9391L76.3048 42.8226H78.2618L78.6207 43.9431H80.2188ZM73.4607 43.9431V42.5053H70.5895V41.5738H73.2508V40.1496H70.5895V39.2451H73.4675V37.8073H69.0184V43.9431H73.4539H73.4607ZM67.8943 43.9431V42.4648H64.908V37.8073H63.3438V43.9431H67.9011H67.8943Z" fill="white"/>
<path d="M24.0531 29.0994C21.4121 29.0994 18.3175 26.8651 18.3175 24.0638L24.0531 24.6713V29.0994ZM23.2337 31.8061H27.3712L28.9897 33.3924C28.9897 34.2226 28.9897 35.5456 28.9897 36.7336C27.4796 37.5504 23.1389 38.3334 21.5476 37.7124C19.726 36.9632 18.2701 31.5564 23.2337 31.8061ZM41.6257 20.9116L41.5715 20.8576L37.2376 21.4246C36.1067 21.5731 35.2738 22.5181 35.2738 23.6588V27.1621C37.0751 25.3598 39.8041 22.7408 41.6324 20.9183L41.6257 20.9116ZM42.2758 39.4067L53.5709 50.6657L52.9615 51.3137C50.1174 54.3512 46.657 56.8082 42.7769 58.4823C39.0389 60.1023 34.9217 61 30.6013 61C22.1502 61 14.4982 57.5845 8.96575 52.063C3.4265 46.5414 0 38.9207 0 30.4966C0 22.0726 3.4265 14.445 8.96575 8.93027C14.505 3.40875 22.1502 0 30.6013 0C34.9217 0 39.0456 0.89774 42.7769 2.51775C46.657 4.1985 50.1174 6.65551 52.9615 9.68627L53.5709 10.3343L42.2961 21.5731C44.1921 24.0436 45.3162 27.1283 45.3162 30.4764C45.3162 33.8244 44.1786 36.9362 42.2758 39.4067ZM41.0772 20.1758L50.9842 10.3005C48.4312 7.74229 45.4043 5.66326 42.0387 4.20525C38.5378 2.6865 34.6711 1.8495 30.6013 1.8495C22.6649 1.8495 15.4733 5.05576 10.2727 10.2398C5.07201 15.4238 1.85546 22.5856 1.85546 30.5034C1.85546 38.4212 5.07201 45.5829 10.2727 50.7669C15.4733 55.951 22.6581 59.1573 30.6013 59.1573C34.6711 59.1573 38.5378 58.3135 42.0387 56.8015C45.4043 55.3435 48.438 53.2645 50.9842 50.7062L41.0433 40.7972C38.4971 43.3217 34.9758 45.0969 30.6013 45.1172C28.5969 45.1172 26.8972 44.6042 25.5225 43.9157C23.9786 43.1327 23.9244 40.8242 25.746 40.5879C27.439 40.3652 29.1996 39.7509 30.5268 38.9679C31.5223 39.5484 33.933 40.2977 35.3077 40.5947C36.8245 40.0007 38.3346 38.9611 39.4181 37.7394C37.82 38.3536 33.5741 37.5572 32.0708 36.7472V33.4059L35.2603 30.2806H27.4863V23.7129C27.4863 22.5586 26.6196 21.6001 25.4684 21.4718L19.4957 20.8373C22.306 17.6378 26.3216 15.8086 30.5878 15.8086C34.6305 15.8086 38.2872 17.4353 40.9485 20.0611L41.0704 20.1826L41.0772 20.1758Z" fill="white"/>
</svg>
